<svg xmlns="http://www.w3.org/2000/svg" width="70" height="70" fill="none" xmlns:v="https://vecta.io/nano"><path d="M67.316 48.34l-18.47-18.605 2.05-10.096c.53.207 1.09.314 1.66.32h.014c2.608.03 4.747-2.058 4.778-4.666s-2.06-4.747-4.667-4.778-4.747 2.058-4.778 4.666a4.72 4.72 0 0 0 .273 1.639l-10.85 1.324L19.628.35c-.217-.222-.514-.348-.824-.35s-.6.124-.817.34l-3.31 3.3c-.455.456-.455 1.194 0 1.65l1.78 1.806a32.69 32.69 0 0 0 5.511 38.638c.093.09.2.162.32.214a6.77 6.77 0 0 0-.114 1.197v13.533h-14A5.84 5.84 0 0 0 2.342 66.5v2.333c0 .644.522 1.167 1.167 1.167h53.667c.644 0 1.167-.522 1.167-1.167V66.5a5.84 5.84 0 0 0-5.833-5.833h-14V54.67a32.88 32.88 0 0 0 6.669.7c5.377-.006 10.67-1.346 15.4-3.9l1.8 1.8c.217.22.514.348.824.35s.6-.124.817-.34l3.31-3.3c.455-.456.455-1.194 0-1.65zM50.925 13.635c.914-.91 2.39-.905 3.3.01s.905 2.39-.01 3.3c-.437.435-1.03.68-1.646.68h-.007c-1.29-.007-2.328-1.057-2.32-2.345.003-.617.25-1.207.688-1.642h-.005zM48.178 21.3l-1.31 6.444-2.57-2.586 3.88-3.857zm-1.325-1.973l-4.2 4.176-3.25-3.267 7.45-.91zM52.51 63a3.5 3.5 0 0 1 3.5 3.5v1.167H4.676V66.5a3.5 3.5 0 0 1 3.5-3.5H52.51zm-16.333-4.667v2.333H24.51v-2.333h11.667zM24.51 56v-8.867c0-2.83 2.617-5.133 5.833-5.133s5.833 2.303 5.833 5.133V56H24.51zm14-3.7v-5.157c0-4.117-3.663-7.467-8.167-7.467a8.31 8.31 0 0 0-7.177 3.907 30.34 30.34 0 0 1-4.985-34.753l40.692 40.925C52.59 52.942 45.386 53.842 38.51 52.3zm24.695-1.496L17.142 4.46l1.65-1.645L36.15 20.272c.008 0 .013.015.02.02L64.86 49.15l-1.656 1.645z" fill="#212121"/><path d="M30.353 44.333h-.01a3.5 3.5 0 1 0-.01 7h.01a3.5 3.5 0 0 0 .011-7zm.817 4.327c-.22.218-.517.34-.827.34-.644-.003-1.164-.528-1.16-1.173.002-.31.125-.604.344-.82s.5-.338.817-.34c.644.003 1.164.528 1.16 1.173-.002.31-.125.604-.344.82h.01z" fill="#2196f3"/></svg>