<svg xmlns="http://www.w3.org/2000/svg" width="70" height="70" fill="none" xmlns:v="https://vecta.io/nano"><g clip-path="url(#A)"><path d="M68.46 33.472C68.458 14.982 53.466-.004 34.975 0S1.5 14.996 1.504 33.486A33.48 33.48 0 0 0 24.8 65.371c.132.042.27.063.41.063.264-.001.522-.07.75-.205.295-.175.516-.452.62-.78l8.455-26.797c2.31-.012 4.175-1.895 4.163-4.206s-1.895-4.175-4.206-4.164c-.622.003-1.235.146-1.794.42l-11.17-11.17c-.554-.535-1.437-.52-1.972.034-.522.54-.522 1.398 0 1.94L31.216 31.68c-.857 1.75-.367 3.86 1.173 5.05l-8.056 25.534C8.414 56.4.262 38.74 6.126 22.82S29.65-1.252 45.57 4.613s24.072 23.525 18.208 39.444a30.72 30.72 0 0 1-16.323 17.442l-.87-4.1c-.16-.753-.9-1.235-1.653-1.076a1.4 1.4 0 0 0-.64.324l-8.393 7.493c-.576.512-.627 1.394-.114 1.97a1.4 1.4 0 0 0 .62.402l10.716 3.42c.733.236 1.52-.168 1.754-.9.075-.232.087-.478.037-.717l-.856-4.023a33.37 33.37 0 0 0 20.407-30.82zm-33.478-1.395c.77 0 1.395.625 1.395 1.395s-.625 1.395-1.395 1.395-1.395-.624-1.395-1.395.624-1.395 1.395-1.395zm4.594 32.515l4.778-4.262 1.32 6.213-6.096-1.95z" fill="#212121"/><g fill="#2196f3"><path d="M33.588 6.967v2.8c0 .77.624 1.395 1.395 1.395s1.395-.624 1.395-1.395v-2.8c0-.77-.625-1.395-1.395-1.395s-1.395.625-1.395 1.395zM8.48 32.077c-.77 0-1.395.625-1.395 1.395s.624 1.395 1.395 1.395h2.8c.77 0 1.395-.624 1.395-1.395s-.624-1.395-1.395-1.395h-2.8zm53.007 2.8c.77 0 1.395-.624 1.395-1.395s-.624-1.395-1.395-1.395h-2.8c-.77 0-1.395.625-1.395 1.395s.625 1.395 1.395 1.395h2.8z"/></g></g><defs><clipPath id="A"><path fill="#fff" d="M0 0h70v70H0z"/></clipPath></defs></svg>