<svg xmlns="http://www.w3.org/2000/svg"><path d="M16.977 2.935h.136c.253 0 .527.025.797.048 1.193.084 2.377.263 3.542.534V.654A21.09 21.09 0 0017.797.07 29.24 29.24 0 0016.319 0h-.427c-2.475.01-4.94.327-7.337.946-2.73.68-5.35 1.747-7.784 3.166v28.397a31.634 31.634 0 017.42-2.892 32.36 32.36 0 016.228-.956h.084c.351-.018.703-.028 1.065-.03v-2.91a34.328 34.328 0 00-8.095 1.076c-.98.255-1.925.53-2.813.834l-1.012.344V5.833l.432-.208a28.275 28.275 0 0110.516-2.683.627.627 0 01.091 0c.403-.02.808-.03 1.205-.03h.455c.21.005.42.01.63.023z" fill="#AFB1B8"/><path d="M24.11 5.932a25.913 25.913 0 01-4.234-.343c-.45-.076-.893-.168-1.323-.267v28.071c1.82.451 3.69.671 5.565.656a29.943 29.943 0 007.337-.943 29.815 29.815 0 007.786-3.166V2.05a31.777 31.777 0 01-7.417 2.893c-2.52.648-5.112.98-7.713.99zm11.225.486l1.012-.34v22.148l-.433.209a27.763 27.763 0 01-5.173 1.858c-2.163.56-4.387.848-6.62.857-.668 0-1.33-.028-1.973-.083l-.693-.062V8.228l.807.054c.587.038 1.194.056 1.854.056 2.835-.01 5.659-.372 8.406-1.078.944-.25 1.882-.53 2.813-.842zM2.737 42.212a1.492 1.492 0 00-1.125-.455 1.676 1.676 0 00-.65.122 1.463 1.463 0 00-.832.842c-.08.2-.12.413-.117.628v3.794c-.01.268.042.533.149.778.09.195.219.368.38.509.151.128.33.22.52.27.185.051.376.078.567.078.212.002.42-.043.612-.132a1.6 1.6 0 00.96-1.465v-.424h-.992v.338a.881.881 0 01-.059.338.608.608 0 01-.144.214.697.697 0 01-.415.145.504.504 0 01-.465-.204.899.899 0 01-.132-.508v-3.538c-.006-.196.036-.39.122-.567a.507.507 0 01.485-.229.527.527 0 01.443.214.806.806 0 01.165.509v.328h.981v-.387a1.788 1.788 0 00-.121-.663 1.563 1.563 0 00-.332-.535zM8.629 42.169a1.765 1.765 0 00-1.128-.417c-.202 0-.403.037-.592.107A1.558 1.558 0 006 42.7c-.1.231-.15.482-.145.734v3.64c-.006.255.043.51.145.744.09.196.22.37.384.509.152.14.33.25.524.32a1.712 1.712 0 001.72-.32c.158-.142.286-.315.374-.509.102-.234.151-.489.145-.745v-3.639a1.77 1.77 0 00-.145-.735 1.643 1.643 0 00-.374-.531zm-.463 4.905a.654.654 0 01-.197.527.727.727 0 01-.934 0 .652.652 0 01-.197-.527v-3.639a.655.655 0 01.197-.526.726.726 0 01.934 0 .65.65 0 01.197.526v3.64zM16.367 48.7v-6.89h-.953l-1.253 3.647h-.017L12.88 41.81h-.943v6.89h.984v-4.191h.018l.963 2.962h.491l.972-2.962h.017v4.19h.984zM21.958 42.294c-.152-.17-.343-.3-.557-.377a2.184 2.184 0 00-.713-.107h-1.462v6.89h.981v-2.691h.506c.307.014.611-.051.886-.188a1.43 1.43 0 00.538-.527c.114-.183.19-.387.226-.6a4.9 4.9 0 00.053-.783c.01-.331-.023-.662-.096-.984a1.467 1.467 0 00-.362-.633zm-.506 2.1a.868.868 0 01-.091.358.552.552 0 01-.253.242 1.007 1.007 0 01-.463.087h-.448v-2.342h.506a.941.941 0 01.443.086.556.556 0 01.23.254c.054.121.083.252.086.384v.458c0 .16.01.325 0 .473h-.01zM26.608 41.81h-.805l-1.518 6.89h.982l.288-1.48h1.338l.289 1.48h.982l-1.556-6.89zm-.906 4.471l.483-2.497h.018l.48 2.497h-.981zM32.95 45.96h-.018l-1.483-4.15h-.943v6.89h.981v-4.143h.02l1.5 4.142h.924V41.81h-.981v4.15zM38.948 41.81l-.79 2.74h-.02l-.79-2.74H36.31l1.348 3.978v2.911h.982v-2.911l1.348-3.977h-1.04zM0 50.645h.473v1.327h.321v-1.327h.47v-.272H0v.272zM3.977 50.373l-.62 1.599h.341l.132-.364h.637l.137.364h.35l-.636-1.6h-.341zm-.05.966l.217-.593.217.593h-.435zM7.908 51.382h.37v.206a.613.613 0 01-.38.135.404.404 0 01-.34-.153.669.669 0 01-.118-.417c0-.356.154-.534.46-.534a.337.337 0 01.362.255l.316-.062c-.068-.312-.293-.47-.678-.47a.804.804 0 00-.559.206.78.78 0 00-.23.615.873.873 0 00.205.6.776.776 0 00.607.235.96.96 0 00.678-.255v-.63h-.693v.27zM11.923 50.373h-.324v1.599h1.12V51.7h-.796v-1.327zM15.318 50.373h-.324v1.599h.324v-1.6zM18.636 51.44l-.655-1.067h-.314v1.599h.301v-1.045l.643 1.045h.321v-1.6h-.296v1.069zM21.637 51.268h.797v-.272h-.797v-.351h.857v-.272h-1.181v1.599h1.214V51.7h-.89v-.432zM28.912 51.003h-.63v-.63h-.321v1.599h.321v-.7h.63v.7h.321v-1.6h-.32v.631zM31.93 51.268h.8v-.272h-.8v-.351h.86v-.272H31.61v1.599h1.212V51.7h-.89v-.432zM36.023 51.268c.278-.043.42-.19.42-.445a.383.383 0 00-.157-.356.905.905 0 00-.468-.094h-.678v1.6h.322v-.67h.063a.428.428 0 01.2.036c.047.029.086.07.114.117l.349.509h.384l-.195-.313a1.114 1.114 0 00-.354-.384zm-.324-.221h-.237v-.402h.253a.84.84 0 01.326.038.208.208 0 01.046.256.208.208 0 01-.061.07.91.91 0 01-.327.038zM39.11 51.268h.796v-.272h-.797v-.351h.86v-.272h-1.183v1.599H40V51.7h-.89v-.432z" fill="#AFB1B8"/></svg>