<svg fill="none" xmlns="http://www.w3.org/2000/svg"><path d="M44.74 21.353a3.259 3.259 0 01-.57-2.057v-2.982c0-.915.189-1.61.567-2.085.378-.475 1.028-.712 1.949-.71.865 0 1.48.202 1.843.607.396.516.589 1.147.544 1.784v.7h-1.547v-.71a3.961 3.961 0 00-.045-.694.69.69 0 00-.221-.413.836.836 0 00-.561-.16.886.886 0 00-.59.17.81.81 0 00-.257.455c-.044.243-.064.49-.06.737v3.62c-.025.349.044.698.198 1.016a.734.734 0 00.31.247.78.78 0 00.399.057.788.788 0 00.548-.164.748.748 0 00.23-.44c.037-.24.053-.483.049-.725v-.735h1.547v.67a2.914 2.914 0 01-.535 1.876c-.355.443-.961.664-1.852.664-.891 0-1.564-.236-1.946-.728zM51.186 21.384c-.391-.465-.587-1.141-.587-2.036V16.21c0-.886.196-1.556.587-2.011.39-.455 1.044-.682 1.961-.68.91 0 1.56.227 1.952.68.39.455.59 1.125.59 2.011v3.138c0 .886-.2 1.565-.597 2.033-.397.467-1.044.7-1.945.7-.9 0-1.567-.236-1.961-.697zm2.682-.753c.14-.29.204-.61.186-.928v-3.841a1.843 1.843 0 00-.183-.91.738.738 0 00-.316-.25.784.784 0 00-.408-.054.794.794 0 00-.41.054.75.75 0 00-.318.25c-.14.283-.204.596-.185.91v3.859c-.02.32.044.638.185.928a.96.96 0 00.327.23 1.008 1.008 0 00.796 0 .96.96 0 00.326-.23v-.018zM57.55 13.61h1.667L60.47 19.4l1.282-5.789h1.622l.163 8.356H62.34l-.128-5.807-1.238 5.807h-.961l-1.282-5.829-.119 5.829H57.4l.15-8.356zM65.406 13.61h2.596c1.496 0 2.244.791 2.244 2.373 0 1.515-.788 2.271-2.362 2.27h-.885v3.713h-1.602l.01-8.356zm2.218 3.571c.158.02.319.005.471-.04.152-.046.292-.122.41-.224.184-.282.265-.613.231-.943a2.858 2.858 0 00-.077-.759.634.634 0 00-.118-.229.675.675 0 00-.202-.168 1.53 1.53 0 00-.715-.134h-.622v2.497h.622zM72.556 13.61h1.721l1.766 8.356h-1.494l-.349-1.927h-1.535l-.36 1.927H70.79l1.766-8.356zm1.471 5.461l-.6-3.507-.599 3.507h1.199zM77.469 13.61h1.122l2.147 4.767V13.61h1.33v8.356h-1.067l-2.16-4.976v4.976h-1.375l.003-8.356zM85.184 18.78l-1.786-5.158h1.504l1.09 3.313 1.022-3.313h1.47l-1.762 5.158v3.186h-1.538V18.78zM47.215 25.62v.436h-1.308v3.395h-.548v-3.395h-1.314v-.437h3.17zM51.314 29.451h-.423a.176.176 0 01-.119-.036.195.195 0 01-.07-.088l-.378-.91H48.51l-.378.91a.257.257 0 01-.058.103.183.183 0 01-.119.037h-.423l1.603-3.832h.557l1.622 3.816zM48.66 28.03h1.513l-.64-1.56a2.964 2.964 0 01-.12-.36c-.022.072-.041.142-.06.202l-.058.161-.635 1.556zM54.077 29.075c.1.005.2.005.3 0a1.67 1.67 0 00.257-.045c.079-.019.156-.042.231-.07.07-.027.141-.06.215-.094v-.862h-.641a.12.12 0 01-.087-.03.087.087 0 01-.032-.07v-.294h1.244v1.468a2.355 2.355 0 01-.676.313 2.654 2.654 0 01-.401.079 4.405 4.405 0 01-.468.024 2.25 2.25 0 01-.808-.143 1.936 1.936 0 01-.64-.4 1.848 1.848 0 01-.414-.607 2.075 2.075 0 01-.147-.795 2.155 2.155 0 01.144-.801c.092-.227.233-.434.413-.607a1.91 1.91 0 01.641-.398c.275-.097.566-.146.859-.142.15 0 .298.01.446.033.13.02.258.053.38.097.113.04.22.091.321.152.099.06.192.127.28.2l-.155.237a.14.14 0 01-.052.052.15.15 0 01-.073.02.197.197 0 01-.099-.03 1.953 1.953 0 01-.157-.09 1.363 1.363 0 00-.215-.104 1.874 1.874 0 00-.295-.085 2.255 2.255 0 00-.407-.033 1.746 1.746 0 00-.618.106 1.337 1.337 0 00-.471.303c-.133.138-.235.3-.298.477a1.954 1.954 0 000 1.277c.07.18.179.345.32.483.132.131.291.235.468.303.204.067.42.092.635.076zM59.185 29.014h1.75v.437H58.65V25.62h.548l-.013 3.395zM62.756 29.451h-.548V25.62h.548v3.832zM64.794 25.637c.032.017.06.041.083.07l2.343 2.888a.973.973 0 010-.136v-2.855h.478v3.847h-.276a.238.238 0 01-.119-.021.315.315 0 01-.086-.073l-2.34-2.886v2.98h-.458v-3.832h.285a.23.23 0 01.09.018zM71.732 25.62v.42H69.79v1.266h1.574v.407H69.79v1.307h1.942v.422h-2.506V25.62h2.506zM14.303 1.954l24.335 6.541v22.922L14.305 24.88V1.954zM12.743 0v25.992l27.453 7.382V7.384L12.743 0z" fill="#AFB1B8"/><path d="M27.456 45.44L0 38.052v-25.99l27.456 7.385V45.44z" fill="#AFB1B8"/><path d="M13.198 1.66l24.017 6.459-10.214 9.672-24.02-6.462 10.217-9.67zM12.743 0L0 12.063l27.456 7.385 12.74-12.063L12.743 0zM29.002 43.978l11.194-10.6-11.194-3.013v13.613z" fill="#AFB1B8"/></svg>