<svg fill="none" xmlns="http://www.w3.org/2000/svg"><path d="M6.346 41.795a.114.114 0 01.08.034l.205.216c-.16.174-.357.314-.579.41-.26.103-.539.153-.82.146a2.01 2.01 0 01-.772-.137 1.672 1.672 0 01-.957-.985 2.164 2.164 0 01-.13-.767 2.017 2.017 0 01.14-.77c.09-.223.226-.426.4-.598.175-.169.385-.302.617-.39.253-.093.523-.14.795-.137a1.97 1.97 0 01.738.125c.203.084.39.201.553.346l-.173.23a.175.175 0 01-.043.042.11.11 0 01-.07.017.156.156 0 01-.074-.025l-.093-.061-.129-.078a1.4 1.4 0 00-.406-.138 1.626 1.626 0 00-.306-.024 1.528 1.528 0 00-.571.103 1.292 1.292 0 00-.448.289c-.128.133-.227.29-.29.46-.073.196-.108.402-.106.608-.003.21.033.42.106.618.062.17.16.325.285.459.118.124.264.221.427.284.168.066.348.1.53.098.105.001.21-.005.314-.02.17-.02.332-.076.476-.164.072-.045.14-.096.203-.152a.154.154 0 01.098-.04zM12.287 40.71c.003.26-.044.52-.139.763a1.655 1.655 0 01-.387.592 1.754 1.754 0 01-.608.388 2.296 2.296 0 01-1.564 0 1.777 1.777 0 01-.604-.39 1.74 1.74 0 01-.391-.597 2.167 2.167 0 010-1.527c.087-.223.22-.427.39-.6a1.78 1.78 0 01.605-.375 2.258 2.258 0 011.564 0c.228.088.435.22.607.39.17.17.301.37.388.59.095.245.143.505.14.767zm-.54 0a1.759 1.759 0 00-.098-.612 1.208 1.208 0 00-.71-.747 1.658 1.658 0 00-1.137 0 1.208 1.208 0 00-.712.747c-.13.4-.13.827 0 1.226a1.203 1.203 0 00.712.745c.367.13.77.13 1.137 0 .166-.064.314-.162.435-.287.123-.134.217-.29.275-.458.07-.198.102-.405.098-.613zM16.34 41.353l.055.138c.02-.05.038-.093.059-.138a1.32 1.32 0 01.067-.134l1.314-2.277c.026-.039.049-.063.075-.07a.322.322 0 01.108-.013h.388v3.703h-.46v-2.723-.115a1.083 1.083 0 010-.127l-1.322 2.308a.202.202 0 01-.078.084.216.216 0 01-.113.031h-.074c-.04 0-.08-.01-.113-.03a.2.2 0 01-.078-.085l-1.36-2.323v2.972h-.445V38.86h.388a.322.322 0 01.108.012.15.15 0 01.072.071l1.343 2.28a.806.806 0 01.067.131zM21.287 41.17v1.386h-.514V38.86h1.147c.216-.004.432.023.64.08.167.046.321.124.453.231.114.1.202.224.257.363.06.15.09.311.088.473.002.162-.03.323-.096.472a1.013 1.013 0 01-.277.37 1.27 1.27 0 01-.456.245c-.2.061-.41.09-.62.086l-.622-.01zm0-.398h.622c.136.002.27-.017.399-.056a.845.845 0 00.288-.16.651.651 0 00.175-.244.767.767 0 00.062-.311.678.678 0 00-.052-.302.707.707 0 00-.18-.252 1.033 1.033 0 00-.692-.199h-.622v1.525zM28.2 42.561h-.406a.18.18 0 01-.113-.034.227.227 0 01-.067-.086l-.35-.894h-1.756l-.363.894a.199.199 0 01-.064.084.18.18 0 01-.116.036h-.406l1.543-3.703h.535l1.564 3.703zm-2.546-1.374h1.451l-.612-1.508a2.624 2.624 0 01-.116-.348l-.06.194a1.852 1.852 0 01-.056.157l-.607 1.505zM30.423 38.876c.031.016.058.038.078.066l2.25 2.791v-.13-2.745h.46v3.703h-.257a.23.23 0 01-.105-.022.286.286 0 01-.082-.068l-2.249-2.79c.003.043.003.086 0 .128v2.753h-.46v-3.703h.273c.032-.001.063.005.092.017zM37.003 41.089v1.47h-.515v-1.47l-1.422-2.23h.46c.04-.003.08.009.11.032a.313.313 0 01.07.083l.89 1.438a1.541 1.541 0 01.157.328l.067-.159c.025-.058.054-.114.088-.169l.877-1.448a.373.373 0 01.067-.078.162.162 0 01.11-.037h.466l-1.425 2.24zM16.086 32.644c.224.027.45.05.679.069 3.47-1.48 6.407-3.9 8.441-6.96 2.034-3.06 3.077-6.624 2.997-10.246l-3.825-3.644a20.22 20.22 0 01-1.05 11.512c-1.465 3.67-3.972 6.88-7.242 9.27z" fill="#AFB1B8"/><path d="M14.72 32.475l.103.02c3.494-2.382 6.158-5.707 7.648-9.546a19.54 19.54 0 00.706-11.99L17.73 5.77a24.082 24.082 0 012.557 13.768c-.532 4.728-2.463 9.214-5.567 12.938zM33.196 19.786c-.926 3.98-3.173 7.568-6.41 10.234a20.213 20.213 0 01-3.045 2.082 18.187 18.187 0 007.08-3.813 17.084 17.084 0 004.584-6.4l-2.21-2.103z" fill="#AFB1B8"/><path d="M32.33 19.2l-3.146-2.997a18.475 18.475 0 01-2.953 9.67c-1.873 2.915-4.532 5.299-7.699 6.903h.016c.705 0 1.41-.04 2.111-.12a19.338 19.338 0 007.611-5.33 18.093 18.093 0 004.06-8.126zM15.176 3.58L11.423 0c-3.355 1.235-6.24 3.406-8.278 6.23C1.107 9.053.01 12.397 0 15.823c.013 3.787 1.35 7.46 3.801 10.441 2.451 2.98 5.875 5.097 9.731 6.015 3.442-3.995 5.457-8.932 5.753-14.093.295-5.161-1.144-10.277-4.11-14.606zM41 18.65c-.013-4.493-1.892-8.798-5.227-11.974-3.334-3.177-7.852-4.967-12.567-4.98-2.179-.002-4.339.381-6.371 1.13l22.977 21.89A16.07 16.07 0 0041 18.65z" fill="#AFB1B8"/></svg>