<svg aria-hidden="true" style="position:absolute;width:0;height:0" xmlns="http://www.w3.org/2000/svg" overflow="hidden"><defs><symbol id="icon-email" viewBox="0 0 43 32"><path fill="var(--color1, #2196f3)" d="M38.667 0H4C1.795 0 0 1.675 0 3.733v22.405c0 2.059 1.795 3.733 4 3.733h34.667c2.205 0 4-1.675 4-3.733V3.733c0-2.059-1.795-3.733-4-3.733zm0 2.488c.181 0 .355.037.512.099L21.334 17.024 3.489 2.587c.152-.062.327-.098.512-.099h34.667zm0 24.893H4c-.736 0-1.333-.557-1.333-1.243V5.215L20.459 19.61c.235.189.537.304.866.304h.017c.329 0 .631-.115.869-.306l-.003.002L40 5.215v20.923c0 .685-.597 1.243-1.333 1.243z"/></symbol>

<symbol id="icon-facebook" viewBox="0 0 32 32">
<path fill="var(--color2, #afb1b8)" d="M21.329 5.313h2.921V.225C23.746.156 22.013 0 19.994 0c-4.212 0-7.097 2.649-7.097 7.519V12H8.249v5.688h4.648V32h5.699V17.689h4.46l.708-5.688h-5.169V8.082c.001-1.644.444-2.769 2.735-2.769z"></path>
</symbol>

<symbol id="icon-instagram" viewBox="0 0 32 32">
<path fill="var(--color2, #afb1b8)" d="M31.969 9.408c-.075-1.7-.35-2.869-.744-3.882a7.806 7.806 0 00-1.851-2.838A7.867 7.867 0 0026.542.844C25.523.45 24.36.175 22.66.1 20.947.019 20.403 0 16.059 0s-4.888.019-6.595.094c-1.7.075-2.869.35-3.882.744a7.803 7.803 0 00-2.838 1.85A7.867 7.867 0 00.9 5.52C.506 6.539.231 7.702.156 9.402c-.081 1.713-.1 2.257-.1 6.601s.019 4.888.094 6.595c.075 1.7.35 2.869.744 3.882a7.895 7.895 0 001.85 2.838 7.867 7.867 0 002.832 1.844c1.019.394 2.182.669 3.882.744 1.706.075 2.25.094 6.595.094s4.888-.019 6.595-.094c1.7-.075 2.869-.35 3.882-.744a8.184 8.184 0 004.682-4.682c.394-1.019.669-2.182.744-3.882.075-1.707.094-2.251.094-6.595s-.006-4.888-.081-6.595zm-2.882 13.065c-.069 1.563-.331 2.407-.55 2.969a5.31 5.31 0 01-3.038 3.038c-.563.219-1.413.481-2.969.55-1.688.075-2.194.094-6.464.094s-4.782-.019-6.464-.094c-1.563-.069-2.407-.331-2.969-.55a4.926 4.926 0 01-1.838-1.194 4.974 4.974 0 01-1.194-1.838c-.219-.563-.481-1.413-.55-2.969-.075-1.688-.094-2.194-.094-6.464s.019-4.782.094-6.464c.069-1.563.331-2.407.55-2.969a4.868 4.868 0 011.2-1.838A4.974 4.974 0 016.639 3.55c.563-.219 1.413-.481 2.969-.55 1.688-.075 2.194-.094 6.464-.094 4.276 0 4.782.019 6.464.094 1.563.069 2.407.331 2.969.55a4.914 4.914 0 011.838 1.194 4.974 4.974 0 011.194 1.838c.219.563.481 1.413.55 2.969.075 1.688.094 2.194.094 6.464s-.019 4.77-.094 6.458z"></path>
<path fill="var(--color2, #afb1b8)" d="M16.059 7.783c-4.538 0-8.22 3.682-8.22 8.22s3.682 8.22 8.22 8.22c4.539 0 8.22-3.682 8.22-8.22s-3.682-8.22-8.22-8.22zm0 13.553a5.333 5.333 0 010-10.664 5.333 5.333 0 010 10.664zM26.524 7.458a1.919 1.919 0 11-3.838 0 1.919 1.919 0 013.838 0z">
</path>
</symbol>

<symbol id="icon-linkedin" viewBox="0 0 32 32">
<path fill="var(--color2, #afb1b8)" d="M31.992 32v-.001H32V20.263c0-5.741-1.236-10.164-7.948-10.164-3.227 0-5.392 1.771-6.276 3.449h-.093v-2.913h-6.364v21.364h6.627V21.42c0-2.785.528-5.479 3.977-5.479 3.399 0 3.449 3.179 3.449 5.657v10.401h6.62zM.528 10.636h6.635V32H.528V10.636zM3.843 0C1.722 0 0 1.721 0 3.843s1.721 3.879 3.843 3.879c2.121 0 3.843-1.757 3.843-3.879A3.846 3.846 0 003.843 0z">
</path>
</symbol>

<symbol id="icon-logo1" viewBox="0 0 29 32">
<path fill="var(--color2, #afb1b8)" d="M3.84 0l4.677 4.428h13.046v12.351l4.677 4.428V.001H3.84z"></path>
<path fill="var(--color2, #afb1b8)" d="M0 4.241v20.6h21.76v-8.188L8.655 4.246 0 4.241zm17.615 17.587H3.443V7.973h1.002V20.89h13.17v.938zM6.266 28.662l.524-1.078h.438l-.764 1.437v.838h-.397v-.838l-.764-1.437h.439l.524 1.078zm2.247.667h-.881l-.184.53h-.411l.859-2.275h.355l.861 2.275h-.413l-.186-.53zm-.77-.319h.659l-.33-.944-.33.944zm2.328.234c0-.105.029-.202.086-.289.058-.089.17-.193.339-.314a1.498 1.498 0 01-.182-.276l-.004-.008a.568.568 0 01-.052-.226c0-.179.054-.319.163-.422s.254-.156.437-.156a.57.57 0 01.406.147c.106.097.16.218.16.361v.003a.497.497 0 01-.074.262l.001-.002a.858.858 0 01-.233.236l-.003.002-.155.113.44.518a.914.914 0 00.095-.417h.33c0 .28-.065.509-.196.689l.334.396h-.44l-.128-.152a.93.93 0 01-.558.183h-.025.001c-.225 0-.405-.06-.54-.179a.597.597 0 01-.202-.447v-.021.001zm.753.343a.58.58 0 00.359-.128l-.497-.586-.049.035c-.125.095-.188.203-.188.325 0 .105.034.191.102.256a.375.375 0 00.254.099h.019-.001zm-.21-1.466c0 .088.054.197.161.33l.173-.118.049-.039a.283.283 0 00.097-.212v-.009-.002a.2.2 0 00-.067-.149.233.233 0 00-.162-.064h-.019a.224.224 0 00-.167.075.276.276 0 00-.066.179v.01zm4.134.997c-.023.243-.113.432-.269.568s-.364.204-.623.204a.902.902 0 01-.48-.128.86.86 0 01-.317-.362l-.002-.005a1.302 1.302 0 01-.117-.544v-.22c0-.214.038-.403.114-.567a.871.871 0 01.326-.378.913.913 0 01.494-.133c.251 0 .453.068.606.205s.243.329.268.578h-.394c-.019-.163-.067-.281-.144-.353-.076-.073-.188-.109-.336-.109a.464.464 0 00-.397.189c-.092.125-.138.309-.141.552v.202c0 .246.044.433.132.563s.218.194.387.194c.155 0 .272-.035.35-.105s.128-.186.148-.348h.394zm2.17-.338c0 .223-.038.419-.115.588a.88.88 0 01-.332.388.905.905 0 01-.494.134.92.92 0 01-.493-.134.897.897 0 01-.332-.38l-.002-.006a1.335 1.335 0 01-.119-.555v-.023.001-.128c0-.222.038-.418.117-.588s.19-.3.333-.389c.144-.091.308-.136.493-.136s.35.045.493.134c.143.089.255.217.333.384s.118.362.118.584v.126zm-.396-.118c0-.252-.048-.445-.143-.58a.465.465 0 00-.384-.202l-.022.001h.001-.016a.468.468 0 00-.384.2l-.001.002c-.096.133-.145.323-.147.567v.131c0 .25.049.444.146.58s.233.205.406.205c.175 0 .31-.067.403-.2.095-.133.142-.328.142-.584v-.118z">
</path>
</symbol>

<symbol id="icon-logo2" viewBox="0 0 25 32"><path fill="var(--color2, #afb1b8)" d="M10.447 1.806h.084c.156 0 .324.015.49.03a13.96 13.96 0 012.18.329V.403a12.432 12.432 0 00-2.207-.357l-.042-.002c-.254-.02-.571-.035-.889-.043H9.779c-1.523.006-3.04.201-4.515.582a18.28 18.28 0 00-4.79 1.948v17.475a18.922 18.922 0 014.431-1.75l.135-.029a19.11 19.11 0 013.78-.586l.052-.002h.052c.216-.011.433-.017.655-.018V15.83c-1.78.024-3.493.264-5.129.695l.147-.033c-.603.157-1.185.326-1.731.513l-.623.212V3.591l.266-.128c1.89-.918 4.096-1.513 6.424-1.649l.047-.002.028-.001.029.001h-.001c.248-.012.497-.018.742-.018h.28c.129.003.258.006.388.014z"></path>
<path fill="var(--color2, #afb1b8)" d="M14.837 3.65h-.019a16.1 16.1 0 01-2.68-.224l.094.013c-.277-.047-.55-.103-.814-.164v17.274c1.12.278 2.271.413 3.425.404a18.492 18.492 0 004.644-.609l-.128.029a18.299 18.299 0 004.877-1.995l-.085.047V1.262a19.021 19.021 0 01-4.429 1.751l-.136.03a19.345 19.345 0 01-4.746.609zm6.908.3l.623-.209v13.63l-.266.129c-.903.442-1.962.834-3.065 1.117l-.119.026c-1.331.345-2.7.522-4.074.527-.411 0-.818-.017-1.214-.051l-.426-.038V5.064l.497.033c.361.023.735.034 1.141.034a21.098 21.098 0 005.173-.663 28.128 28.128 0 001.731-.518zM1.684 25.977a.916.916 0 00-.661-.281l-.033.001h.002-.013c-.139 0-.272.028-.393.078l.007-.003a.904.904 0 00-.51.512l-.002.006a1.002 1.002 0 00-.072.386v2.335c-.006.165.026.328.092.479.055.12.135.226.234.313a.817.817 0 00.32.166c.114.031.231.048.349.048a.989.989 0 00.968-.982v-.261h-.61v.221a.53.53 0 01-.038.199l.001-.004a.38.38 0 01-.089.132.426.426 0 01-.255.089.308.308 0 01-.285-.125l-.001-.001a.548.548 0 01-.082-.289l.001-.024v.001-2.177a.74.74 0 01.075-.349.31.31 0 01.262-.143l.038.002H.988 1c.107 0 .201.052.26.131l.001.001a.494.494 0 01.102.301v.013-.001.202h.604v-.238-.01c0-.143-.027-.28-.077-.405l.003.007a.969.969 0 00-.205-.33zm3.626-.027a1.051 1.051 0 00-1.058-.191.965.965 0 00-.557.511l-.002.006a1.08 1.08 0 00-.089.452v2.24c-.004.157.026.314.089.458a.888.888 0 00.236.313.964.964 0 00.322.197 1.047 1.047 0 001.06-.198l-.001.001a.948.948 0 00.23-.313c.063-.144.093-.301.089-.458v-2.239-.02c0-.156-.033-.305-.092-.439l.003.007a1.012 1.012 0 00-.23-.326zm-.285 3.019l.002.035a.398.398 0 01-.123.289.446.446 0 01-.575 0l.001.001a.398.398 0 01-.121-.326v.002-2.239l-.001-.034c0-.114.047-.216.123-.289a.446.446 0 01.575 0l-.001-.001a.398.398 0 01.121.325v-.002 2.24zm5.047 1v-4.24h-.586l-.771 2.244h-.01l-.778-2.244h-.58v4.24h.606V27.39h.011l.593 1.823h.302l.598-1.823h.01v2.578h.606zm3.441-3.942a.837.837 0 00-.343-.232 1.31 1.31 0 00-.416-.066h-.024.001-.9v4.24h.604v-1.656h.311c.189.009.376-.031.545-.116a.894.894 0 00.329-.32l.002-.004a1.02 1.02 0 00.139-.369c.021-.133.033-.287.033-.444v-.04.002a2.421 2.421 0 00-.059-.606.906.906 0 00-.223-.39zm-.312 1.292a.533.533 0 01-.057.223l.001-.003a.344.344 0 01-.154.148l-.002.001a.617.617 0 01-.254.054l-.033-.001h.002-.276V26.3h.311l.029-.001c.088 0 .172.02.247.055l-.004-.002a.35.35 0 01.141.154l.001.002a.62.62 0 01.053.236v.282c0 .098.006.2 0 .291H13.2zm3.173-1.59h-.495l-.934 4.24h.604l.177-.911h.823l.178.911h.604l-.958-4.24zm-.557 2.752l.297-1.537h.011l.295 1.537h-.604zm4.46-.198h-.011l-.913-2.554h-.58v4.24h.604v-2.55h.012l.923 2.549h.569v-4.239h-.604v2.554zm3.691-2.554l-.486 1.686h-.012l-.486-1.686h-.639l.83 2.448v1.791h.604v-1.791l.83-2.447h-.64zM0 31.166h.291v.817h.198v-.817h.289v-.167H0v.167zm2.447-.167l-.382.984h.21l.081-.224h.392l.084.224h.215l-.391-.985h-.21zm-.03.594l.134-.365.134.365h-.268zm2.449.027h.228v.127a.378.378 0 01-.234.083h-.014a.25.25 0 01-.195-.094.406.406 0 01-.073-.234l.001-.023v.001c0-.219.095-.329.283-.329l.021-.001c.097 0 .178.067.201.157v.001l.194-.038c-.042-.192-.18-.289-.417-.289h-.013a.492.492 0 00-.331.127.48.48 0 00-.141.38v-.002.023c0 .132.048.254.127.347l-.001-.001c.087.09.209.146.343.146L4.877 32h-.001.016c.155 0 .296-.06.402-.157v-.388h-.426v.166zm2.471-.621h-.199v.984h.689v-.167h-.49v-.817zm2.089 0h-.199v.984h.199v-.985zm2.042.656l-.403-.657h-.193v.984h.185v-.643l.396.643h.198v-.985h-.182v.658zm1.847-.105h.49v-.167h-.49v-.216h.527V31h-.727v.984h.747v-.167h-.548v-.266zm4.477-.164h-.388v-.388h-.198v.984h.198v-.431h.388v.431h.198v-.985h-.197v.388zm1.857.164h.492v-.167h-.492v-.216h.529V31h-.726v.984h.746v-.167h-.548v-.266zm2.519 0c.171-.026.258-.117.258-.274a.23.23 0 00-.096-.219h-.001a.555.555 0 00-.25-.059l-.04.001h.002-.417v.985h.198v-.412h.055c.039 0 .075.008.109.023l-.002-.001a.21.21 0 01.07.072l.215.313h.236l-.12-.193a.704.704 0 00-.215-.235l-.002-.002zm-.199-.136h-.146v-.247h.156a.515.515 0 01.205.024l-.004-.001a.128.128 0 01.028.158v-.001a.128.128 0 01-.037.043.537.537 0 01-.164.025l-.039-.001h.002zm2.099.136h.49v-.167h-.49v-.216h.529V31h-.728v.984h.747v-.167h-.548v-.266z">
</path>
</symbol>

<symbol id="icon-logo3" viewBox="0 0 31 32"><path fill="var(--color2, #afb1b8)" d="M4.723 31.103c.023 0 .044.01.06.025l.153.161c-.119.13-.266.234-.431.305a1.551 1.551 0 01-.61.109h-.031a1.5 1.5 0 01-.554-.106l.01.004a1.248 1.248 0 01-.709-.724l-.003-.009a1.591 1.591 0 01-.097-.55v-.022-.022c0-.198.038-.387.108-.56l-.004.01a1.315 1.315 0 01.757-.735c.188-.069.389-.104.592-.102h.034c.185 0 .362.034.525.097l-.01-.003c.151.063.29.15.412.258l-.129.171a.118.118 0 01-.032.031.084.084 0 01-.044.013h-.008a.12.12 0 01-.056-.019l-.069-.045-.096-.058a1.025 1.025 0 00-.296-.102l-.006-.001a1.23 1.23 0 00-.208-.018H3.96h.001-.014c-.148 0-.289.028-.418.079l.008-.003a.947.947 0 00-.333.215 1.002 1.002 0 00-.216.342c-.054.146-.08.299-.079.452-.002.156.025.313.079.46.046.127.119.242.212.342a.873.873 0 00.318.211c.125.049.259.074.394.073.078.001.156-.004.234-.015a.879.879 0 00.505-.235.112.112 0 01.073-.03zm4.421-.807c.002.194-.033.387-.103.568a1.246 1.246 0 01-.288.44 1.314 1.314 0 01-.444.286l-.009.003a1.695 1.695 0 01-1.176-.004l.012.004a1.331 1.331 0 01-.45-.29 1.3 1.3 0 01-.288-.436l-.003-.009a1.614 1.614 0 01.004-1.147l-.004.011a1.34 1.34 0 01.29-.447 1.32 1.32 0 01.441-.276l.009-.003A1.674 1.674 0 018.311 29l-.012-.004a1.29 1.29 0 01.741.729c.071.182.106.376.104.571zm-.402 0v-.024c0-.155-.027-.303-.076-.441l.003.009a.907.907 0 00-.522-.554l-.006-.002a1.219 1.219 0 00-.855.003l.009-.003a.903.903 0 00-.528.55l-.002.006a1.465 1.465 0 000 .912.899.899 0 00.524.552l.006.002c.273.097.573.097.846 0a.903.903 0 00.324-.214.972.972 0 00.205-.341 1.29 1.29 0 00.073-.456zm3.418.478l.041.103a1.993 1.993 0 01.096-.207l-.003.005.978-1.695c.019-.029.036-.047.056-.052a.243.243 0 01.068-.01h.013-.001.289v2.756h-.342v-2.112l-.001-.047.002-.049v.002l-.984 1.718a.149.149 0 01-.057.062h-.001a.154.154 0 01-.083.023h-.056c-.03 0-.06-.007-.084-.022s-.045-.037-.058-.062v-.001l-1.012-1.729v2.212h-.331V28.92h.303a.22.22 0 01.068.01h-.002a.107.107 0 01.053.052v.001l.999 1.697c.018.028.035.06.048.093l.001.004zm3.681-.136v1.031h-.383v-2.75h.854c.161-.003.322.017.476.06a.914.914 0 01.337.172c.085.074.15.167.191.27a.92.92 0 01.066.352.832.832 0 01-.071.351.772.772 0 01-.205.274l-.001.001a.953.953 0 01-.333.181l-.007.002a1.498 1.498 0 01-.461.064l-.463-.007zm0-.296h.463a.961.961 0 00.297-.042.627.627 0 00.215-.12l-.001.001c.056-.049.1-.11.129-.178l.001-.003a.565.565 0 00.046-.225v-.007l.001-.029a.506.506 0 00-.041-.199l.001.003a.53.53 0 00-.133-.187.763.763 0 00-.457-.15l-.061.002h.003-.463v1.135zm5.145 1.331h-.308a.136.136 0 01-.079-.026.168.168 0 01-.049-.063v-.001l-.26-.665h-1.307l-.27.665a.153.153 0 01-.047.062.132.132 0 01-.081.027h-.308l1.148-2.756h.398l1.164 2.756zm-1.895-1.022h1.08l-.455-1.122c-.03-.07-.06-.157-.083-.245l-.003-.014-.045.144a1.282 1.282 0 01-.045.126l.003-.009-.452 1.12zm3.549-1.72a.162.162 0 01.058.049l1.674 2.077v-2.14h.342v2.756h-.196a.164.164 0 01-.074-.017h.001a.212.212 0 01-.061-.05L22.71 29.53a.753.753 0 010 .095v2.049h-.342v-2.756h.203a.156.156 0 01.068.013zm4.897 1.647v1.094h-.383v-1.094l-1.058-1.66h.342c.03-.002.06.007.082.024a.234.234 0 01.052.061l.001.001.662 1.07c.045.07.085.151.114.236l.002.008.05-.118a.947.947 0 01.066-.126l.653-1.078a.279.279 0 01.05-.058.123.123 0 01.077-.028h.352l-1.06 1.667zm-15.566-6.285c.167.02.335.037.505.051 2.582-1.101 4.768-2.902 6.282-5.18s2.29-4.93 2.23-7.625l-2.846-2.712c.189.894.297 1.921.297 2.974 0 2.015-.396 3.937-1.115 5.694l.036-.1c-1.09 2.731-2.956 5.12-5.389 6.899z"></path>
<path fill="var(--color2, #afb1b8)" d="M10.954 24.167l.077.015c2.6-1.773 4.583-4.247 5.692-7.104.627-1.564.99-3.377.99-5.275 0-1.296-.17-2.553-.488-3.75l.023.102-4.054-3.862c1.269 2.396 2.014 5.238 2.014 8.254 0 .702-.04 1.394-.119 2.075l.008-.083c-.396 3.519-1.833 6.857-4.143 9.628zm13.75-9.443c-.689 2.962-2.361 5.632-4.77 7.616a14.98 14.98 0 01-2.191 1.51l-.075.039a13.579 13.579 0 005.285-2.851l-.016.013a12.76 12.76 0 003.38-4.679l.031-.084-1.645-1.565z"/>
<path fill="var(--color2, #afb1b8)" d="M24.06 14.288l-2.341-2.23a13.684 13.684 0 01-2.23 7.249l.032-.053c-1.394 2.169-3.373 3.943-5.729 5.137h.012c.525 0 1.049-.03 1.571-.089a14.47 14.47 0 005.65-3.95l.014-.017a13.397 13.397 0 003.005-5.958l.016-.089zM11.294 2.664L8.501 0c-2.497.919-4.644 2.535-6.16 4.636S.008 9.225.001 11.775c.01 2.818 1.005 5.552 2.829 7.77s4.372 3.793 7.242 4.476c2.562-2.973 4.061-6.647 4.281-10.488s-.851-7.648-3.059-10.87zm19.218 11.215c-.01-3.344-1.408-6.547-3.89-8.911s-5.843-3.696-9.352-3.706a13.674 13.674 0 00-4.741.841l17.099 16.29c.559-1.335.884-2.886.884-4.513v-.002z">
</path>
</symbol>

<symbol id="icon-logo4" viewBox="0 0 60 32"><path fill="var(--color1, #2196f3)" d="M9.229 9.548h-.002c-1.684 0-3.049 1.331-3.049 2.971v.002c0 1.64 1.365 2.971 3.048 2.971h.002c1.684 0 3.049-1.331 3.049-2.971v-.002c0-1.64-1.365-2.97-3.049-2.97zm22.501-.949a8.508 8.508 0 00-2.59-6.075A8.954 8.954 0 0022.909 0c-2.339.004-4.581.912-6.236 2.523s-2.585 3.797-2.59 6.076v12.566S31.728 19.25 31.73 8.601v-.002zM0 25.289a5.909 5.909 0 001.801 4.226l.002.001a6.224 6.224 0 008.673-.001l-.002.002a5.906 5.906 0 001.804-4.223v-8.746S0 17.882 0 25.29zm6.14 1.566h-.001c-.332 0-.64-.099-.898-.268l.006.004a1.588 1.588 0 01-.589-.692l-.004-.01a1.506 1.506 0 01-.089-.915l-.002.01a1.56 1.56 0 01.439-.802c.22-.213.5-.365.814-.427l.01-.002c.312-.06.635-.03.929.089s.545.32.722.578a1.546 1.546 0 01.146 1.481l.004-.01c-.08.191-.199.365-.348.511s-.327.262-.522.341a1.61 1.61 0 01-.616.12H6.14v-.006zm12.532-.971h-1.256v1.297h-.655v-3.173h2.067v.53h-1.412v.819h1.255v.528zm3.143-.218c0 .313-.055.586-.166.822a1.248 1.248 0 01-1.157.737h-.026.001c-.263 0-.498-.063-.704-.19a1.269 1.269 0 01-.476-.533l-.003-.008c-.109-.23-.173-.5-.173-.785v-.028.001-.158c0-.313.056-.588.168-.825a1.26 1.26 0 01.477-.547c.207-.128.442-.192.707-.192s.499.064.704.192c.206.127.365.309.477.547.114.237.17.511.17.822v.141zm-.662-.144c0-.333-.06-.586-.179-.759a.585.585 0 00-.485-.26l-.027.001h.001l-.025-.001a.58.58 0 00-.482.256l-.001.002c-.119.17-.179.42-.181.749v.155c0 .324.06.576.179.755s.29.268.514.268l.026.001c.2 0 .375-.101.479-.255l.001-.002c.118-.173.177-.424.179-.755v-.155zm2.783.826v-.018a.334.334 0 00-.13-.264l-.001-.001c-.087-.067-.244-.137-.471-.21a3.363 3.363 0 01-.558-.227l.019.009c-.36-.195-.54-.457-.54-.787 0-.171.048-.324.144-.458.098-.135.236-.24.417-.316s.385-.113.61-.113c.227 0 .429.042.607.124s.314.197.412.347c.099.15.149.32.149.511h-.655a.422.422 0 00-.137-.338c-.092-.082-.22-.123-.386-.123-.159 0-.284.034-.372.103a.315.315 0 00-.134.259v.008c0 .103.052.189.156.259s.258.135.46.196c.372.112.643.251.813.417s.255.372.255.618c0 .275-.104.491-.312.647s-.487.234-.839.234c-.244 0-.466-.045-.667-.133a1.081 1.081 0 01-.458-.365l-.002-.003a.934.934 0 01-.157-.522v-.019.001h.656c0 .35.209.525.628.525a.61.61 0 00.364-.094.31.31 0 00.131-.254v-.013.001zm3.491-1.811h-.973v2.644H25.8v-2.644h-.959v-.53h2.586v.53zm2.285 1.268h-1.255v.85h1.474v.525h-2.128v-3.173h2.124v.53h-1.469v.756h1.255v.513zm1.777.214h-.521v1.162h-.655v-3.173h1.18c.375 0 .664.083.868.251s.305.403.305.708a.992.992 0 01-.141.543.955.955 0 01-.419.341l-.006.002.687 1.297v.03h-.702l-.595-1.162zm-.521-.53h.528c.164 0 .291-.042.381-.124a.45.45 0 00.136-.323l-.001-.025v.001a.47.47 0 00-.129-.353c-.084-.086-.214-.129-.39-.129h-.525v.953zm3.963.573v1.119h-.654v-3.173h1.238c.238 0 .448.043.628.131.182.087.321.211.418.372s.147.342.147.548c0 .311-.107.557-.321.737-.212.179-.506.268-.883.268h-.573zm0-.529h.584c.173 0 .305-.041.394-.123.092-.081.138-.197.138-.348l.001-.023a.522.522 0 00-.139-.355.519.519 0 00-.38-.149h-.599v.997zm4.138.272h-1.255v.85h1.474v.525H37.16v-3.173h2.124v.53h-1.47v.756h1.256v.513zm3.036-1.268h-.973v2.644h-.654v-2.644h-.959v-.53h2.586v.53zm2.284 1.268h-1.256v.85h1.474v.525H42.48v-3.173h2.123v.53h-1.47v.756h1.256v.513zm1.777.214h-.521v1.162h-.655v-3.173h1.18c.375 0 .665.083.868.251s.305.403.305.708a.992.992 0 01-.141.543.955.955 0 01-.419.341l-.006.002.687 1.297v.03h-.703l-.595-1.162zm-.521-.53h.527c.164 0 .292-.042.382-.124a.45.45 0 00.136-.323l-.001-.025v.001a.474.474 0 00-.129-.353c-.084-.086-.214-.129-.391-.129h-.525v.953zm3.844.859v-.018a.329.329 0 00-.131-.264l-.001-.001c-.088-.067-.244-.137-.471-.21a3.363 3.363 0 01-.558-.227l.019.009c-.36-.195-.54-.457-.54-.787 0-.171.048-.324.144-.458s.236-.24.417-.316c.182-.075.385-.113.61-.113.227 0 .429.042.606.124s.315.197.412.347c.099.15.149.32.149.511h-.655a.422.422 0 00-.137-.338c-.092-.082-.22-.123-.386-.123-.16 0-.284.034-.372.103a.315.315 0 00-.134.259v.008c0 .103.052.189.156.259s.258.135.46.196c.372.112.643.251.813.417s.255.372.255.618c0 .275-.104.491-.312.647s-.487.234-.839.234c-.244 0-.466-.045-.667-.133a1.087 1.087 0 01-.458-.365l-.002-.003a.934.934 0 01-.157-.522v-.019.001h.656c0 .35.208.525.627.525a.614.614 0 00.365-.094.311.311 0 00.13-.253v-.014.001z"/></symbol><symbol id="icon-logo5" viewBox="0 0 40 32"><path fill="var(--color2, #afb1b8)" d="M3.056 26.742c.157.194.24.438.236.688l.001.053c0 .324-.141.615-.365.815l-.001.001a1.575 1.575 0 01-1.061.317H.001v-4.361h1.827a1.548 1.548 0 011.017.294l-.004-.003a.994.994 0 01.353.818v-.003c.011.24-.065.477-.212.667a.99.99 0 01-.556.34c.247.046.471.177.63.373zm-2.188-.658h.78a.733.733 0 00.497-.145.516.516 0 00.169-.383l-.002-.045v.002l.001-.037a.535.535 0 00-.167-.389.747.747 0 00-.514-.146h.003-.767v1.144zm1.354 1.672a.54.54 0 00.186-.408l-.001-.036v.002l.001-.032a.552.552 0 00-.189-.416l-.001-.001a.8.8 0 00-.48-.159l-.054.002h.002-.818v1.199h.829a.816.816 0 00.524-.151zm4.567.861l-1.016-1.704h-.382v1.704h-.874v-4.36h1.654a1.616 1.616 0 011.155.373l-.003-.002a1.391 1.391 0 01.12 1.808l.003-.004a1.337 1.337 0 01-.789.443l1.083 1.743h-.951zm-1.397-2.299h.715c.497 0 .745-.22.745-.66l.001-.037a.647.647 0 00-.184-.453.767.767 0 00-.566-.177h.003-.724l.009 1.328zm6.176 1.421H9.826l-.308.878h-.916l1.6-4.313h.991l1.593 4.312h-.916l-.301-.878zm-.233-.66l-.637-1.84-.637 1.84h1.273zm6.215 1.537h-.869l-1.945-2.965v2.966h-.866v-4.361h.866l1.945 2.982v-2.982h.868v4.361zm4.952-1.043c-.182.33-.45.593-.775.764l-.01.005a2.545 2.545 0 01-1.22.274h-1.546v-4.361h1.546l.067-.001c.42 0 .817.1 1.168.277l-.015-.007c.332.168.606.433.785.761.171.333.272.727.272 1.144s-.1.811-.278 1.158l.007-.014zm-.993-.104c.239-.278.384-.642.384-1.041s-.145-.763-.386-1.043l.002.002a1.5 1.5 0 00-1.091-.371h.004-.603v2.823h.603a1.496 1.496 0 001.088-.372l-.002.001zM12.112 0s11.201 4.246 10.962 10.39v10.392S11.881 16.534 12.115 10.39L12.112 0zm20.941 18.349a15.15 15.15 0 017.049-2.628l.068-.006v-3.253c-2.995 1.181-5.437 3.227-7.081 5.827l-.035.06z"/><path fill="var(--color2, #afb1b8)" d="M31.782 19.329c1.749-3.487 4.693-6.158 8.283-7.513l.105-.035V2.408S24.218 8.456 24.555 17.205v14.796s.711-.27 1.829-.777c0-.473 0-.95.051-1.43a15.387 15.387 0 015.326-10.447l.021-.017z"/><path fill="var(--color2, #afb1b8)" d="M30.266 24.825c.084-1.027.27-2.041.558-3.03a14.243 14.243 0 00-3.378 8.921v.016a44.08 44.08 0 003.286-1.741l-.218.118c-.191-.908-.3-1.952-.3-3.021 0-.445.019-.885.056-1.32l-.004.057zm.634.053a14.803 14.803 0 00.212 3.971l-.015-.092c4.357-2.619 9.255-6.664 9.066-11.553v-.426a14.265 14.265 0 00-8.297 3.894l.005-.005a14.26 14.26 0 00-.968 4.158l-.003.052z"/></symbol><symbol id="icon-logo6" viewBox="0 0 62 32"><path fill="var(--color2, #afb1b8)" d="M31.123 14.854a2.248 2.248 0 01-.396-1.437v.007-2.074c0-.637.131-1.12.394-1.45s.715-.495 1.356-.494c.602 0 1.03.141 1.282.422.275.359.41.798.378 1.241v.487h-1.076v-.494l.001-.064c0-.148-.012-.293-.034-.435l.002.016a.482.482 0 00-.153-.287.575.575 0 00-.345-.113l-.048.002h.002a.616.616 0 00-.412.119l.002-.001a.568.568 0 00-.178.313l-.001.004a2.594 2.594 0 00-.042.513v2.518c-.017.243.031.486.138.707a.526.526 0 00.212.171l.003.001a.544.544 0 00.28.04h-.003a.545.545 0 00.382-.115l-.001.001a.522.522 0 00.16-.303v-.003c.026-.167.037-.336.034-.504v-.511h1.076v.466a2.018 2.018 0 01-.376 1.311l.004-.006c-.247.308-.669.462-1.288.462s-1.088-.164-1.354-.506zm4.485.022c-.272-.323-.408-.794-.408-1.416v-2.183c0-.616.136-1.082.408-1.399s.726-.474 1.364-.473c.633 0 1.085.158 1.358.473.271.317.41.783.41 1.399v2.183c0 .616-.139 1.089-.415 1.414s-.726.487-1.353.487c-.626 0-1.09-.164-1.364-.485zm1.865-.524c.097-.202.142-.424.129-.646v-2.672l.002-.072a1.28 1.28 0 00-.133-.569l.003.007a.528.528 0 00-.216-.173l-.003-.001a.533.533 0 00-.287-.037h.003a.546.546 0 00-.289.039l.004-.001a.53.53 0 00-.22.172l-.001.001a1.263 1.263 0 00-.129.633v2.685a1.29 1.29 0 00.129.646.676.676 0 00.223.158l.004.002a.692.692 0 00.558-.002l-.005.002a.672.672 0 00.226-.16v-.013zm2.562-4.884h1.16l.872 4.028.892-4.027h1.128l.113 5.813h-.833l-.089-4.04-.861 4.04h-.669l-.892-4.055-.083 4.055h-.843l.104-5.813zm5.465 0h1.806c1.041 0 1.561.55 1.561 1.651 0 1.054-.548 1.58-1.643 1.579h-.616v2.583h-1.114l.007-5.813zm1.543 2.484c.11.014.222.003.328-.028s.203-.085.285-.156c.128-.196.184-.426.161-.656l.001-.065c0-.164-.02-.324-.057-.476l.003.014a.444.444 0 00-.083-.16l.001.001a.496.496 0 00-.138-.116l-.002-.001a1.046 1.046 0 00-.5-.093h.003-.433v1.737h.433zm3.431-2.484h1.197l1.229 5.813h-1.039l-.243-1.341H50.55l-.25 1.341h-1.054l1.229-5.813zm1.023 3.799l-.417-2.44-.417 2.44h.834zm2.394-3.799h.781l1.494 3.316V9.468h.925v5.813h-.742l-1.503-3.462v3.462h-.957l.002-5.813zm5.367 3.596l-1.242-3.588h1.046l.758 2.305.711-2.305h1.023l-1.226 3.588v2.216h-1.07v-2.216zm-26.413 4.759v.303h-.91v2.362h-.381v-2.362h-.914v-.304h2.205zm2.852 2.665h-.302a.124.124 0 01-.075-.026.134.134 0 01-.048-.06v-.001l-.263-.633h-1.262l-.263.633a.181.181 0 01-.04.072.128.128 0 01-.077.026h-.3l1.115-2.666h.387l1.128 2.655zm-1.847-.989h1.053l-.445-1.085a1.908 1.908 0 01-.08-.236l-.003-.014-.042.141-.04.112-.442 1.082zm3.769.727c.07.003.139.003.209 0 .067-.006.128-.018.187-.033l-.008.002c.055-.013.109-.029.161-.049.049-.019.098-.042.15-.065v-.6h-.451a.082.082 0 01-.055-.021.059.059 0 01-.022-.047v-.207h.865v1.021a1.627 1.627 0 01-.459.215l-.012.003a1.765 1.765 0 01-.27.054l-.009.001a2.873 2.873 0 01-.319.017h-.019c-.197 0-.386-.037-.56-.103l.011.004a1.355 1.355 0 01-.446-.279l.001.001a1.293 1.293 0 01-.285-.414l-.003-.008a1.415 1.415 0 01-.102-.534v-.02V19.147c0-.194.037-.379.104-.549l-.004.01c.064-.158.162-.302.287-.422.125-.117.273-.211.437-.274l.009-.003c.191-.067.394-.102.598-.099.104 0 .207.007.31.023.09.014.179.037.264.067.079.028.153.063.223.106.069.042.134.088.195.139l-.108.165a.103.103 0 01-.036.036.098.098 0 01-.051.014.134.134 0 01-.069-.021h.001a1.62 1.62 0 01-.115-.066l.005.003a.905.905 0 00-.143-.07l-.006-.002a1.21 1.21 0 00-.197-.058l-.008-.001a1.495 1.495 0 00-.268-.023h-.016.001-.013c-.15 0-.293.027-.425.077l.008-.003a.94.94 0 00-.328.211.924.924 0 00-.207.332 1.338 1.338 0 00.003.898l-.003-.009a.964.964 0 00.549.547c.142.047.292.064.442.053zm3.553-.042h1.217v.304h-1.59v-2.665h.381l-.009 2.362zm2.484.304h-.381v-2.665h.381v2.666zm1.418-2.654a.194.194 0 01.058.049l1.63 2.009a.68.68 0 010-.096v.002-1.986h.333v2.676h-.192l-.014.001a.163.163 0 01-.07-.016h.001a.266.266 0 01-.06-.05l-1.628-2.008v2.073h-.319v-2.666h.199c.022 0 .044.005.063.013h-.001zm4.827-.011v.292H48.55v.881h1.095v.283H48.55v.909h1.351v.294h-1.743v-2.659h1.743zM9.95 1.359l16.929 4.55v15.946L9.952 17.308V1.359zM8.865 0v18.081l19.098 5.135V5.136L8.865-.001z"/><path fill="var(--color2, #afb1b8)" d="M19.1 31.61L0 26.471V8.391l19.1 5.137V31.61z"/><path fill="var(--color2, #afb1b8)" d="M9.181 1.155l16.707 4.493-7.105 6.728-16.71-4.495L9.18 1.154zM8.865 0L0 8.392l19.1 5.137 8.863-8.392L8.865 0zm11.31 30.593l7.787-7.374-7.787-2.096v9.47z"/></symbol><symbol id="icon-sendbutton" viewBox="0 0 32 32"><path fill="var(--color3, #fff)" d="M32 0L0 18l10.227 3.787L26 7 14.003 23.187l.009.003-.012-.003V32l5.735-6.691L27.002 28l4.999-28z"/></symbol><symbol id="icon-phone" viewBox="0 0 21 32"><path fill="var(--color4, #757575)" d="M18.133 0H3.2C1.436 0 0 1.34 0 2.987v25.89c0 1.647 1.436 2.987 3.2 2.987h14.933c1.764 0 3.2-1.34 3.2-2.987V2.987c0-1.647-1.436-2.987-3.2-2.987zM3.2 1.99h14.933c.589 0 1.067.448 1.067.996v20.911H2.133V2.986c0-.548.478-.996 1.067-.996zm14.933 27.883H3.2c-.589 0-1.067-.448-1.067-.996V25.89H19.2v2.987c0 .548-.478.994-1.067.994z"/><path fill="var(--color4, #757575)" d="M5.022 27.179a.947.947 0 010 1.407l-.001.001c-.198.182-.464.293-.755.293s-.557-.111-.756-.294l.001.001a.947.947 0 010-1.407l.001-.001c.198-.182.464-.293.755-.293s.557.111.756.294l-.001-.001z"/></symbol><symbol id="icon-twitter" viewBox="0 0 32 32"><path fill="var(--color2, #afb1b8)" d="M32 6.078c-1.1.493-2.376.857-3.713 1.028l-.068.007a6.556 6.556 0 002.873-3.579l.013-.046a12.88 12.88 0 01-4.076 1.573l-.084.014A6.558 6.558 0 0015.6 9.557v.004c0 .52.043 1.021.152 1.496-5.454-.266-10.28-2.88-13.522-6.861a6.524 6.524 0 00-.902 3.313v.001a6.57 6.57 0 002.914 5.451 6.453 6.453 0 01-2.994-.823l.033.017v.072a6.592 6.592 0 005.213 6.44l.043.008a6.403 6.403 0 01-1.662.215h-.061.003c-.419 0-.843-.024-1.242-.112.85 2.598 3.261 4.509 6.13 4.57a13.093 13.093 0 01-8.122 2.8H1.57h.001-.062c-.531 0-1.055-.034-1.569-.099l.061.006c2.826 1.846 6.287 2.944 10.004 2.944h.063-.003c12.072 0 18.672-10 18.672-18.669 0-.288-.01-.57-.024-.848a13.203 13.203 0 003.258-3.355l.03-.047z"/></symbol></defs></svg>